<?xml version="1.0" encoding="UTF-8"?>
<!DOCTYPE svg PUBLIC "-//W3C//DTD SVG 1.1//EN" "http://www.w3.org/Graphics/SVG/1.1/DTD/svg11.dtd">
<svg xmlns="http://www.w3.org/2000/svg" version="1.1" width="46px" height="46px" style="shape-rendering:geometricPrecision; text-rendering:geometricPrecision; image-rendering:optimizeQuality; fill-rule:evenodd; clip-rule:evenodd" xmlns:xlink="http://www.w3.org/1999/xlink">
<g><path style="opacity:1" fill="#fbfbfb" d="M -0.5,-0.5 C 14.8333,-0.5 30.1667,-0.5 45.5,-0.5C 45.5,14.8333 45.5,30.1667 45.5,45.5C 30.1667,45.5 14.8333,45.5 -0.5,45.5C -0.5,30.1667 -0.5,14.8333 -0.5,-0.5 Z"/></g>
<g><path style="opacity:1" fill="#040404" d="M 10.5,18.5 C 12.5,18.5 14.5,18.5 16.5,18.5C 16.5,20.5 16.5,22.5 16.5,24.5C 14.5,24.5 12.5,24.5 10.5,24.5C 10.5,22.5 10.5,20.5 10.5,18.5 Z"/></g>
<g><path style="opacity:1" fill="#020202" d="M 18.5,18.5 C 20.5,18.5 22.5,18.5 24.5,18.5C 24.5,20.5 24.5,22.5 24.5,24.5C 22.5,24.5 20.5,24.5 18.5,24.5C 18.5,22.5 18.5,20.5 18.5,18.5 Z"/></g>
<g><path style="opacity:1" fill="#040404" d="M 26.5,18.5 C 28.5,18.5 30.5,18.5 32.5,18.5C 32.5,20.5 32.5,22.5 32.5,24.5C 30.5,24.5 28.5,24.5 26.5,24.5C 26.5,22.5 26.5,20.5 26.5,18.5 Z"/></g>
</svg>
